<svg xmlns="http://www.w3.org/2000/svg" version="1.1" xmlns:xlink="http://www.w3.org/1999/xlink" xmlns:svgjs="http://svgjs.dev/svgjs" width="2000" height="666" viewBox="0 0 2000 666"><g transform="matrix(1,0,0,1,-1.2121212121213603,0.26003842277714284)"><svg viewBox="0 0 396 132" data-background-color="#ffffff" preserveAspectRatio="xMidYMid meet" height="666" width="2000" xmlns="http://www.w3.org/2000/svg" xmlns:xlink="http://www.w3.org/1999/xlink"><g id="tight-bounds" transform="matrix(1,0,0,1,0.24000000000003752,-0.05153914685672589)"><svg viewBox="0 0 395.5199999999999 132.10307829371345" height="132.10307829371345" width="395.5199999999999"><g><svg viewBox="0 0 395.5199999999999 132.10307829371345" height="132.10307829371345" width="395.5199999999999"><g><svg viewBox="0 0 395.5199999999999 132.10307829371345" height="132.10307829371345" width="395.5199999999999"><g id="textblocktransform"><svg viewBox="0 0 395.5199999999999 132.10307829371345" height="132.10307829371345" width="395.5199999999999" id="textblock"><g><svg viewBox="0 0 395.5199999999999 83.99638430025108" height="83.99638430025108" width="395.5199999999999"><g transform="matrix(1,0,0,1,0,0)"><svg width="395.5199999999999" viewBox="1.22 -38.35 184.73 39.230000000000004" height="83.99638430025108" data-palette-color="#3949fd"><path d="M19.26-22.02L19.26-12.16 19.24-11.79Q19.24-10.94 19.3-10.53 19.36-10.13 19.8-9.58 20.24-9.03 22.66-9.03L22.66-9.03 23.32-9.01Q23.68-9.01 23.97-9.08L23.97-9.08 24 0.02 10.64 0.02 9.81 0.07 9.55 0.07Q8.64 0.07 7.57-0.51 6.49-1.1 5.97-1.55 5.44-2 5.08-2.71L5.08-2.71Q4.39-4.03 4.26-5.31 4.13-6.59 4.13-8.5L4.13-8.5 4.13-22.02 1.25-22.02 1.22-25.44 1.22-28.93 4.03-28.93 4.03-37.01 11.57-37.01 19.12-37.04 19.14-28.98 23.22-28.98 23.24-25.49 23.24-22.02 19.26-22.02ZM26.51-14.55L26.51-29.22 33.01-29.25 39.5-29.25 40.04-25.98Q40.6-22.53 40.7-22.07L40.7-22.07 41.55-22.07Q42.45-26.25 45.02-28L45.02-28 45.99-28.56Q46.07-28.71 46.87-29.1L46.87-29.1 46.77-29.08 47.34-29.3Q49.73-30.25 51.46-30.27L51.46-30.27Q51.83-30.27 51.95-30.22L51.95-30.22 52.85-30.22 52.85-16.6Q52.34-16.72 51.24-16.72 50.14-16.72 48.98-16.41 47.82-16.09 47.03-15.59 46.24-15.09 45.65-14.31L45.65-14.31Q43.85-11.89 43.85-7.06L43.85-7.06 43.89-4.49 43.89 0 35.2 0.02 26.54 0.02 26.51-14.55ZM67.04-16.04L68.16-16.21 68.4-16.19 68.99-16.19Q69.82-16.19 70.28-16.31L70.28-16.31 71.6-16.48Q74.97-16.72 75.65-18.29L75.65-18.29Q76-19.07 76-20.26L76-20.26Q75.85-20.51 75.85-21.19 75.85-21.88 75.15-22.63 74.46-23.39 73.51-23.39L73.51-23.39 73.38-23.39Q71.04-23.39 71.04-19.41L71.04-19.41Q70.92-19.21 70.64-19.26 70.36-19.31 69.28-19.31L69.28-19.31 56.68-19.31Q56.81-21 57.56-22.95L57.56-22.95Q59-26.71 63.14-28.36 67.28-30 71.36-30.15L71.36-30.15 72.82-30.22 73.6-30.3Q73.75-30.3 73.9-30.22L73.9-30.22 74.21-30.22 75.31-30.27Q75.65-30.27 76.85-30.1L76.85-30.1 77.56-30Q77.73-29.98 78.1-29.98 78.46-29.98 79.63-29.82 80.81-29.66 82.56-28.98L82.56-28.98Q88.52-26.64 89.79-20L89.79-20Q90.33-17.19 90.33-13.77L90.33-13.77Q90.5-13.21 90.5-12.74L90.5-12.74 90.38-11.06 90.38-8.23Q90.4-8.18 90.4-7.81L90.4-7.81 90.35-6.15 90.35-5.93Q90.42-5.81 90.42-5.59L90.42-5.59 90.4-5.37 90.4-4.86Q90.4-2.54 91.11-0.46L91.11-0.46 91.35 0.07 80.32 0.07 79.44 0.05Q78.46 0.05 77.95 0.07L77.95 0.07Q77.17-1.39 76.46-3.93L76.46-3.93Q76.14-3.27 75.37-2.43 74.6-1.59 74.24-1.59L74.24-1.59Q70.62 0.17 68.75 0.42L68.75 0.42Q65.96 0.88 65.75 0.88 65.55 0.88 65.55 0.88L65.55 0.88Q59.71 0.88 56.73-3.17L56.73-3.17Q55.24-5.25 55.24-7.98L55.24-7.98Q55.24-13.92 60.76-15.26L60.76-15.26Q62.18-15.6 66.23-15.97L66.23-15.97 67.04-16.04ZM76.17-9.81L76.17-10.55 76.19-11.33Q76.19-12.55 76-13.67L76-13.67Q75.46-13.38 74.43-13.01 73.41-12.65 72.8-12.39 72.19-12.13 71.69-11.49 71.19-10.84 71.19-9.72 71.19-8.59 71.91-7.67 72.63-6.74 73.48-6.74L73.48-6.74Q75.31-6.74 76.09-8.06L76.09-8.06 76.14-8.3 76.17-9.81ZM92.72-29.2L92.72-29.2 101.99-29.22 111.08-29.22Q111.2-28.52 111.32-27.27L111.32-27.27 111.86-21.95Q112.15-18.92 112.96-12.13L112.96-12.13 113.01-12.13 115.64-29.22 132.85-29.22 132.78-28.74 132.71-28.74Q128.65-14.58 124.36 0L124.36 0 100.77 0Q98.97-6.2 97.82-10.23L97.82-10.23 97.38-11.99Q95.13-20.61 92.72-29.2ZM146.96-29.96L146.94-29.93Q148.04-30.25 149.28-30.25 150.53-30.25 151.65-30.15L151.65-30.15 152.68-30.05Q155.09-29.83 156.39-29.49L156.39-29.49 156.39-29.52 156.9-29.3Q162.03-27.71 164.88-24.46L164.88-24.46 164.88-24.49Q165.54-23.71 166.51-22.13 167.47-20.56 167.47-19.95L167.47-19.95 167.67-19.29 167.79-18.58Q168.25-16.94 168.25-15.84 168.25-14.75 168.28-14.16L168.28-14.16 148.16-14.16 148.16-13.35Q148.31-12.79 148.31-12.18 148.31-11.57 148.32-11.22 148.33-10.86 148.38-10.53 148.43-10.21 148.44-10 148.45-9.79 148.55-9.51 148.65-9.23 148.66-9.13 148.67-9.03 148.81-8.74 148.94-8.45 149.03-8.19 149.11-7.93 149.36-7.69L149.36-7.69 149.36-7.71 149.62-7.2Q150.09-6.69 150.89-6.47L150.89-6.47Q152.24-6.76 152.71-7.86 153.19-8.96 153.51-10.6L153.51-10.6Q154.38-10.84 156-10.84L156-10.84 159.12-10.77 168.13-10.77Q167.84-7.79 166.37-5.3L166.37-5.3 166.4-5.3Q165.13-3.3 162.44-1.86L162.44-1.86Q154.85 0.81 152.7 0.81L152.7 0.81Q152.31 0.81 152.07 0.76L152.07 0.76 151.5 0.76 151.28 0.78 151.06 0.78Q150.87 0.78 150.58 0.73L150.58 0.73Q150.33 0.88 149.99 0.88L149.99 0.88 147.87 0.63Q147.7 0.71 147.17 0.71 146.65 0.71 144.42 0.05L144.42 0.05 144.42 0.07 143.84-0.1 143.25-0.29Q139.59-1.37 136.98-4.06 134.37-6.76 133.63-10.35L133.63-10.35Q133.56-10.79 133.36-11.68 133.17-12.57 133.17-12.89L133.17-12.89 133.17-14.06Q133.17-14.48 133.19-14.7L133.19-14.7 133.19-15.06Q133.19-20.24 136.27-24.01 139.35-27.78 144.52-29.32L144.52-29.32 145.11-29.49Q146.4-29.71 146.96-29.96L146.96-29.96ZM151.06-17.38L154.24-17.38 154.75-17.7Q154.34-20.34 153.97-21.08 153.6-21.83 153.26-22.36L153.26-22.36Q152.63-23.39 151.59-23.39 150.55-23.39 149.82-22.36L149.82-22.36Q148.53-20.56 148.18-17.29L148.18-17.29Q149.75-17.38 151.06-17.38L151.06-17.38ZM171.01 0.02L170.96-38.33 177.16-38.35Q179.99-38.35 185.95-38.31L185.95-38.31 185.95 0.02 171.01 0.02Z" opacity="1" transform="matrix(1,0,0,1,0,0)" fill="#ffffff" class="wordmark-text-0" data-fill-palette-color="primary" id="text-0"></path></svg></g></svg></g><g transform="matrix(1,0,0,1,0,103.82591472031716)"><svg viewBox="0 0 266.7782399999999 28.277163573396294" height="28.277163573396294" width="266.7782399999999"><g transform="matrix(1,0,0,1,0,0)"><svg width="266.7782399999999" viewBox="0.4 -39.65 381.11 40.4" height="28.277163573396294" data-palette-color="#0718c4"><path d="M0.4-34.55L21.95-34.55 21.25-29.55 14.15-29.55 14.15 0 7.8 0 7.8-29.55 0.4-29.55 0.4-34.55ZM41.75-6.4Q41.75-5.1 42.1-4.48 42.45-3.85 43.25-3.45L43.25-3.45 42 0.65Q39.95 0.4 38.72-0.45 37.5-1.3 36.9-3.05L36.9-3.05Q34.6 0.75 30.45 0.75L30.45 0.75Q27.15 0.75 25.2-1.48 23.25-3.7 23.25-7.4L23.25-7.4Q23.25-11.7 25.92-13.95 28.6-16.2 33.7-16.2L33.7-16.2 35.75-16.2 35.75-18.05Q35.75-20.55 34.87-21.58 34-22.6 32.05-22.6L32.05-22.6Q29.7-22.6 26.2-21.3L26.2-21.3 24.8-25.3Q26.8-26.2 28.95-26.68 31.1-27.15 33.05-27.15L33.05-27.15Q41.75-27.15 41.75-18.35L41.75-18.35 41.75-6.4ZM32.1-3.7Q34.5-3.7 35.75-7L35.75-7 35.75-12.55 34.3-12.55Q31.75-12.55 30.57-11.4 29.4-10.25 29.4-7.85L29.4-7.85Q29.4-5.8 30.1-4.75 30.8-3.7 32.1-3.7L32.1-3.7ZM47.55-26.45L53.7-26.45 53.7 0 47.55 0 47.55-26.45ZM50.6-39.65Q52.25-39.65 53.27-38.6 54.3-37.55 54.3-35.9L54.3-35.9Q54.3-34.3 53.27-33.25 52.25-32.2 50.6-32.2L50.6-32.2Q48.95-32.2 47.92-33.25 46.9-34.3 46.9-35.9L46.9-35.9Q46.9-37.55 47.92-38.6 48.95-39.65 50.6-39.65L50.6-39.65ZM81.44-26.45L87.14-26.45 82.59 0 75.09 0 72.14-20.85 69.24 0 61.79 0 57.14-26.45 63.09-26.45 65.79-4.6 69.14-26.45 75.39-26.45 78.59-4.6 81.44-26.45ZM107.54-6.4Q107.54-5.1 107.89-4.48 108.24-3.85 109.04-3.45L109.04-3.45 107.79 0.65Q105.74 0.4 104.52-0.45 103.29-1.3 102.69-3.05L102.69-3.05Q100.39 0.75 96.24 0.75L96.24 0.75Q92.94 0.75 90.99-1.48 89.04-3.7 89.04-7.4L89.04-7.4Q89.04-11.7 91.72-13.95 94.39-16.2 99.49-16.2L99.49-16.2 101.54-16.2 101.54-18.05Q101.54-20.55 100.67-21.58 99.79-22.6 97.84-22.6L97.84-22.6Q95.49-22.6 91.99-21.3L91.99-21.3 90.59-25.3Q92.59-26.2 94.74-26.68 96.89-27.15 98.84-27.15L98.84-27.15Q107.54-27.15 107.54-18.35L107.54-18.35 107.54-6.4ZM97.89-3.7Q100.29-3.7 101.54-7L101.54-7 101.54-12.55 100.09-12.55Q97.54-12.55 96.37-11.4 95.19-10.25 95.19-7.85L95.19-7.85Q95.19-5.8 95.89-4.75 96.59-3.7 97.89-3.7L97.89-3.7ZM125.69-27.15Q128.54-27.15 130.19-25.1 131.84-23.05 131.84-19.6L131.84-19.6 131.84 0 125.69 0 125.69-18.9Q125.69-20.8 125.16-21.63 124.64-22.45 123.64-22.45L123.64-22.45Q121.54-22.45 119.49-18.5L119.49-18.5 119.49 0 113.34 0 113.34-26.45 118.69-26.45 119.14-23Q120.49-25.1 122.01-26.13 123.54-27.15 125.69-27.15L125.69-27.15ZM144.78-34.55L166.33-34.55 165.63-29.55 158.53-29.55 158.53 0 152.18 0 152.18-29.55 144.78-29.55 144.78-34.55ZM180.88-27.1Q182.03-27.1 182.93-26.75L182.93-26.75 181.93-20.85Q180.93-21.1 180.08-21.1L180.08-21.1Q178.18-21.1 177.08-19.45 175.98-17.8 175.38-14.55L175.38-14.55 175.38 0 169.23 0 169.23-26.45 174.58-26.45 175.03-21.85Q176.88-27.1 180.88-27.1L180.88-27.1ZM202.68-6.4Q202.68-5.1 203.03-4.48 203.38-3.85 204.18-3.45L204.18-3.45 202.93 0.65Q200.88 0.4 199.65-0.45 198.43-1.3 197.83-3.05L197.83-3.05Q195.53 0.75 191.38 0.75L191.38 0.75Q188.08 0.75 186.13-1.48 184.18-3.7 184.18-7.4L184.18-7.4Q184.18-11.7 186.85-13.95 189.53-16.2 194.63-16.2L194.63-16.2 196.68-16.2 196.68-18.05Q196.68-20.55 195.8-21.58 194.93-22.6 192.98-22.6L192.98-22.6Q190.63-22.6 187.13-21.3L187.13-21.3 185.73-25.3Q187.73-26.2 189.88-26.68 192.03-27.15 193.98-27.15L193.98-27.15Q202.68-27.15 202.68-18.35L202.68-18.35 202.68-6.4ZM193.03-3.7Q195.43-3.7 196.68-7L196.68-7 196.68-12.55 195.23-12.55Q192.68-12.55 191.5-11.4 190.33-10.25 190.33-7.85L190.33-7.85Q190.33-5.8 191.03-4.75 191.73-3.7 193.03-3.7L193.03-3.7ZM220.88-26.45L226.93-26.45 220.03 0 212.78 0 205.68-26.45 212.03-26.45 216.38-4.95 220.88-26.45ZM248.67-13.85Q248.67-13.4 248.52-11.3L248.52-11.3 234.87-11.3Q235.07-7.2 236.3-5.58 237.52-3.95 239.77-3.95L239.77-3.95Q241.32-3.95 242.57-4.48 243.82-5 245.27-6.15L245.27-6.15 247.82-2.65Q244.32 0.75 239.42 0.75L239.42 0.75Q234.22 0.75 231.45-2.85 228.67-6.45 228.67-13L228.67-13Q228.67-19.55 231.32-23.35 233.97-27.15 238.82-27.15L238.82-27.15Q243.47-27.15 246.07-23.78 248.67-20.4 248.67-13.85L248.67-13.85ZM242.67-15.3L242.67-15.65Q242.67-19.4 241.77-21.13 240.87-22.85 238.87-22.85L238.87-22.85Q237.02-22.85 236.05-21.18 235.07-19.5 234.87-15.3L234.87-15.3 242.67-15.3ZM258.57 0.75Q255.87 0.75 254.3-0.93 252.72-2.6 252.72-5.4L252.72-5.4 252.72-37.05 258.87-37.7 258.87-5.65Q258.87-5 259.17-4.6 259.47-4.2 260.07-4.2L260.07-4.2Q260.42-4.2 260.75-4.3 261.07-4.4 261.17-4.4L261.17-4.4 262.37-0.2Q260.67 0.75 258.57 0.75L258.57 0.75ZM287.67-35.25Q290.52-35.25 292.77-34.23 295.02-33.2 297.02-31.25L297.02-31.25 293.82-27.95Q292.27-29.3 290.92-29.88 289.57-30.45 287.87-30.45L287.87-30.45Q284.57-30.45 282.69-27.5 280.82-24.55 280.82-17.3L280.82-17.3Q280.82-12.2 281.49-9.33 282.17-6.45 283.49-5.3 284.82-4.15 286.97-4.15L286.97-4.15Q289.22-4.15 291.07-5.4L291.07-5.4 291.07-14.75 287.17-14.75 286.52-19.5 297.12-19.5 297.12-2.6Q294.97-1.05 292.34-0.18 289.72 0.7 287.02 0.7L287.02 0.7Q280.57 0.7 277.37-3.68 274.17-8.05 274.17-17.3L274.17-17.3Q274.17-23.3 275.94-27.33 277.72-31.35 280.77-33.3 283.82-35.25 287.67-35.25L287.67-35.25ZM320.31-26.45L320.31 0 314.96 0 314.66-3.35Q313.41-1.3 311.86-0.28 310.31 0.75 308.26 0.75L308.26 0.75Q305.36 0.75 303.69-1.3 302.01-3.35 302.01-6.65L302.01-6.65 302.01-26.45 308.16-26.45 308.16-7Q308.16-3.9 310.26-3.9L310.26-3.9Q311.46-3.9 312.41-4.83 313.36-5.75 314.16-7.45L314.16-7.45 314.16-26.45 320.31-26.45ZM326.01-26.45L332.16-26.45 332.16 0 326.01 0 326.01-26.45ZM329.06-39.65Q330.71-39.65 331.74-38.6 332.76-37.55 332.76-35.9L332.76-35.9Q332.76-34.3 331.74-33.25 330.71-32.2 329.06-32.2L329.06-32.2Q327.41-32.2 326.39-33.25 325.36-34.3 325.36-35.9L325.36-35.9Q325.36-37.55 326.39-38.6 327.41-39.65 329.06-39.65L329.06-39.65ZM350.81-37.7L356.96-37.05 356.96 0 351.51 0 351.21-3.05Q348.86 0.75 345.16 0.75L345.16 0.75Q341.06 0.75 338.88-2.93 336.71-6.6 336.71-13.2L336.71-13.2Q336.71-17.4 337.83-20.58 338.96-23.75 340.96-25.45 342.96-27.15 345.56-27.15L345.56-27.15Q348.76-27.15 350.81-24.5L350.81-24.5 350.81-37.7ZM346.91-3.9Q348.06-3.9 348.98-4.7 349.91-5.5 350.81-7L350.81-7 350.81-19.85Q349.21-22.55 347.16-22.55L347.16-22.55Q343.11-22.55 343.11-13.25L343.11-13.25Q343.11-8.2 344.11-6.05 345.11-3.9 346.91-3.9L346.91-3.9ZM381.51-13.85Q381.51-13.4 381.36-11.3L381.36-11.3 367.71-11.3Q367.91-7.2 369.13-5.58 370.36-3.95 372.61-3.95L372.61-3.95Q374.16-3.95 375.41-4.48 376.66-5 378.11-6.15L378.11-6.15 380.66-2.65Q377.16 0.75 372.26 0.75L372.26 0.75Q367.06 0.75 364.28-2.85 361.51-6.45 361.51-13L361.51-13Q361.51-19.55 364.16-23.35 366.81-27.15 371.66-27.15L371.66-27.15Q376.31-27.15 378.91-23.78 381.51-20.4 381.51-13.85L381.51-13.85ZM375.51-15.3L375.51-15.65Q375.51-19.4 374.61-21.13 373.71-22.85 371.71-22.85L371.71-22.85Q369.86-22.85 368.88-21.18 367.91-19.5 367.71-15.3L367.71-15.3 375.51-15.3Z" opacity="1" transform="matrix(1,0,0,1,0,0)" fill="#ffffff" class="slogan-text-1" data-fill-palette-color="secondary" id="text-1"></path></svg></g></svg></g></svg></g></svg></g></svg></g><defs></defs></svg><rect width="395.5199999999999" height="132.10307829371345" fill="none" stroke="none" visibility="hidden"></rect></g></svg></g></svg>