<svg xmlns="http://www.w3.org/2000/svg" xmlns:xlink="http://www.w3.org/1999/xlink" width="79" height="21" viewBox="0 0 79 21"><defs><style>.a,.c{fill:#fff;}.a{stroke:#707070;}.b{clip-path:url(#a);}</style><clipPath id="a"><rect class="a" width="79" height="21" transform="translate(80 27)"/></clipPath></defs><g class="b" transform="translate(-80 -27)"><g transform="translate(81.516 28.516)"><path class="c" d="M74.39,71h6.379a1.036,1.036,0,0,1,1.1.959v11.26h5.758a1.036,1.036,0,0,1,1.1.959v3.971H74.39Z" transform="translate(-74.39 -70.448)"/><path class="c" d="M111.473,88.186q-4.67,0-7.142-2.416t-2.45-6.933a8.553,8.553,0,0,1,2.461-6.513A9.548,9.548,0,0,1,111.225,70q4.687,0,7.175,2.343a8.731,8.731,0,0,1,2.483,6.692,9.081,9.081,0,0,1-2.445,6.764Q115.994,88.215,111.473,88.186Zm-.187-13.354q-3.17,0-3.17,4.078,0,2.628.8,3.508a2.991,2.991,0,0,0,2.33.879,3.41,3.41,0,0,0,2.522-.879q.874-.879.874-3.445Q114.621,74.831,111.286,74.831Z" transform="translate(-85.926 -70)"/><path class="c" d="M157.042,78.079a1.039,1.039,0,0,1,1.1.966v1.933a6.346,6.346,0,0,1-2.423,5.286,10.6,10.6,0,0,1-6.637,1.933q-4.714,0-7.28-2.377a8.781,8.781,0,0,1-2.571-6.765q0-4.445,2.56-6.736T149.273,70q4.665,0,7.142,2.812a.875.875,0,0,1,.179.886,1.044,1.044,0,0,1-.728.632l-3.483.966a1.2,1.2,0,0,1-1.165-.3,5.161,5.161,0,0,0-.846-.71,3.07,3.07,0,0,0-1.648-.382,2.7,2.7,0,0,0-2.478,1.247,8.216,8.216,0,0,0-.747,4.044,6.861,6.861,0,0,0,.841,3.827,3.015,3.015,0,0,0,2.654,1.222q2.934,0,3.033-2.807h-2.747V79.045a1.039,1.039,0,0,1,1.1-.966Z" transform="translate(-102.774 -70)"/><path class="c" d="M185.908,88.186q-4.67,0-7.142-2.416t-2.456-6.933a8.543,8.543,0,0,1,2.467-6.513A9.552,9.552,0,0,1,185.656,70q4.7,0,7.175,2.343a8.785,8.785,0,0,1,2.483,6.692,9.093,9.093,0,0,1-2.439,6.764Q190.436,88.215,185.908,88.186ZM185.7,74.831q-3.176,0-3.17,4.315,0,2.778.8,3.706a2.916,2.916,0,0,0,2.324.928,3.3,3.3,0,0,0,2.522-.928c.588-.618.879-1.836.879-3.643Q189.056,74.831,185.7,74.831Z" transform="translate(-119.494 -70)"/></g></g></svg>